<mxfile host="65bd71144e">
    <diagram id="sszuPMERyvNfRv_ZXHtP" name="Page-1">
        <mxGraphModel dx="571" dy="563" grid="1" gridSize="10" guides="1" tooltips="1" connect="1" arrows="1" fold="1" page="1" pageScale="1" pageWidth="850" pageHeight="1100" math="0" shadow="0">
            <root>
                <mxCell id="0"/>
                <mxCell id="1" parent="0"/>
                <mxCell id="2" value="Data Types" style="text;strokeColor=none;align=center;fillColor=none;html=1;verticalAlign=middle;whiteSpace=wrap;rounded=0;" parent="1" vertex="1">
                    <mxGeometry x="190" y="20" width="190" height="50" as="geometry"/>
                </mxCell>
                <mxCell id="3" value="" style="rounded=1;whiteSpace=wrap;html=1;" parent="1" vertex="1">
                    <mxGeometry x="202.5" y="10" width="165" height="60" as="geometry"/>
                </mxCell>
                <mxCell id="7" value="&lt;b&gt;&lt;font style=&quot;font-size: 18px;&quot;&gt;Data Types&lt;/font&gt;&lt;/b&gt;" style="text;strokeColor=none;align=center;fillColor=none;html=1;verticalAlign=middle;whiteSpace=wrap;rounded=0;" parent="1" vertex="1">
                    <mxGeometry x="240" y="20" width="100" height="40" as="geometry"/>
                </mxCell>
                <mxCell id="8" value="Primitive" style="text;strokeColor=none;align=center;fillColor=none;html=1;verticalAlign=middle;whiteSpace=wrap;rounded=0;fontSize=18;shadow=0;" parent="1" vertex="1">
                    <mxGeometry x="10" y="125" width="60" height="30" as="geometry"/>
                </mxCell>
                <mxCell id="12" value="Drived" style="text;strokeColor=none;align=center;fillColor=none;html=1;verticalAlign=middle;whiteSpace=wrap;rounded=0;fontSize=18;" parent="1" vertex="1">
                    <mxGeometry x="250" y="125" width="60" height="30" as="geometry"/>
                </mxCell>
                <mxCell id="33" value="" style="edgeStyle=none;html=1;fontSize=18;" parent="1" source="13" target="28" edge="1">
                    <mxGeometry relative="1" as="geometry"/>
                </mxCell>
                <mxCell id="13" value="User-defined" style="text;html=1;align=center;verticalAlign=middle;resizable=0;points=[];autosize=1;strokeColor=none;fillColor=none;fontSize=18;" parent="1" vertex="1">
                    <mxGeometry x="400" y="120" width="130" height="40" as="geometry"/>
                </mxCell>
                <mxCell id="15" value="" style="endArrow=classic;html=1;fontSize=18;entryX=0.5;entryY=0;entryDx=0;entryDy=0;exitX=0.002;exitY=0.633;exitDx=0;exitDy=0;exitPerimeter=0;" parent="1" source="3" target="8" edge="1">
                    <mxGeometry relative="1" as="geometry">
                        <mxPoint x="190" y="50" as="sourcePoint"/>
                        <mxPoint x="190" y="120" as="targetPoint"/>
                        <Array as="points">
                            <mxPoint x="40" y="50"/>
                        </Array>
                    </mxGeometry>
                </mxCell>
                <mxCell id="17" value="" style="endArrow=classic;html=1;fontSize=18;entryX=0.583;entryY=0.167;entryDx=0;entryDy=0;entryPerimeter=0;" parent="1" source="2" target="12" edge="1">
                    <mxGeometry relative="1" as="geometry">
                        <mxPoint x="212.83000000000004" y="57.98000000000002" as="sourcePoint"/>
                        <mxPoint x="50" y="135" as="targetPoint"/>
                        <Array as="points"/>
                    </mxGeometry>
                </mxCell>
                <mxCell id="18" value="" style="endArrow=classic;html=1;fontSize=18;exitX=1;exitY=0.5;exitDx=0;exitDy=0;" parent="1" source="3" edge="1">
                    <mxGeometry relative="1" as="geometry">
                        <mxPoint x="300" y="100" as="sourcePoint"/>
                        <mxPoint x="470" y="130" as="targetPoint"/>
                        <Array as="points">
                            <mxPoint x="470" y="40"/>
                        </Array>
                    </mxGeometry>
                </mxCell>
                <mxCell id="19" value="" style="whiteSpace=wrap;html=1;aspect=fixed;shadow=0;strokeColor=#33FF99;fontSize=18;" parent="1" vertex="1">
                    <mxGeometry y="160" width="140" height="140" as="geometry"/>
                </mxCell>
                <mxCell id="22" value="Int&lt;br&gt;Float&lt;br&gt;double&lt;br&gt;char&lt;br&gt;boolean&lt;br&gt;void" style="text;strokeColor=none;align=center;fillColor=none;html=1;verticalAlign=middle;whiteSpace=wrap;rounded=0;shadow=0;fontSize=18;" parent="1" vertex="1">
                    <mxGeometry x="45" y="215" width="50" height="30" as="geometry"/>
                </mxCell>
                <mxCell id="24" value="" style="endArrow=classic;html=1;fontSize=18;exitX=1;exitY=0.5;exitDx=0;exitDy=0;entryX=0.803;entryY=-0.029;entryDx=0;entryDy=0;entryPerimeter=0;" parent="1" source="8" target="19" edge="1">
                    <mxGeometry width="50" height="50" relative="1" as="geometry">
                        <mxPoint x="240" y="230" as="sourcePoint"/>
                        <mxPoint x="120" y="140" as="targetPoint"/>
                        <Array as="points">
                            <mxPoint x="110" y="140"/>
                        </Array>
                    </mxGeometry>
                </mxCell>
                <mxCell id="25" value="" style="rounded=0;whiteSpace=wrap;html=1;shadow=0;strokeColor=#33FF99;fontSize=18;rotation=90;" parent="1" vertex="1">
                    <mxGeometry x="230" y="170" width="120" height="100" as="geometry"/>
                </mxCell>
                <mxCell id="26" value="Array&lt;br&gt;function&lt;br&gt;pointer&lt;br&gt;reference" style="text;strokeColor=none;align=center;fillColor=none;html=1;verticalAlign=middle;whiteSpace=wrap;rounded=0;shadow=0;fontSize=18;" parent="1" vertex="1">
                    <mxGeometry x="245" y="165" width="90" height="110" as="geometry"/>
                </mxCell>
                <mxCell id="27" value="" style="rounded=0;whiteSpace=wrap;html=1;shadow=0;strokeColor=#33FF99;fontSize=18;rotation=89;" parent="1" vertex="1">
                    <mxGeometry x="410.17" y="185" width="140" height="90" as="geometry"/>
                </mxCell>
                <mxCell id="28" value="Structure&lt;br&gt;Union&lt;br&gt;Enum&lt;br&gt;Class&lt;br&gt;Typedef" style="text;strokeColor=none;align=center;fillColor=none;html=1;verticalAlign=middle;whiteSpace=wrap;rounded=0;shadow=0;fontSize=18;" parent="1" vertex="1">
                    <mxGeometry x="432.67" y="165" width="95" height="130" as="geometry"/>
                </mxCell>
                <mxCell id="30" value="" style="endArrow=classic;html=1;fontSize=18;entryX=0.358;entryY=-0.016;entryDx=0;entryDy=0;entryPerimeter=0;" parent="1" source="12" target="26" edge="1">
                    <mxGeometry relative="1" as="geometry">
                        <mxPoint x="180" y="280" as="sourcePoint"/>
                        <mxPoint x="260" y="340" as="targetPoint"/>
                    </mxGeometry>
                </mxCell>
                <mxCell id="34" value="" style="ellipse;whiteSpace=wrap;html=1;" vertex="1" parent="1">
                    <mxGeometry x="225" y="400" width="120" height="80" as="geometry"/>
                </mxCell>
                <mxCell id="35" value="&lt;font face=&quot;Comic Sans MS&quot; style=&quot;font-size: 18px;&quot;&gt;Data&lt;/font&gt;" style="text;strokeColor=none;align=center;fillColor=none;html=1;verticalAlign=middle;whiteSpace=wrap;rounded=0;" vertex="1" parent="1">
                    <mxGeometry x="255" y="425" width="60" height="30" as="geometry"/>
                </mxCell>
                <mxCell id="36" value="" style="rounded=1;whiteSpace=wrap;html=1;fontFamily=Comic Sans MS;fontSize=18;" vertex="1" parent="1">
                    <mxGeometry y="520" width="120" height="60" as="geometry"/>
                </mxCell>
                <mxCell id="37" value="" style="rounded=1;whiteSpace=wrap;html=1;fontFamily=Comic Sans MS;fontSize=18;" vertex="1" parent="1">
                    <mxGeometry x="225" y="670" width="120" height="60" as="geometry"/>
                </mxCell>
                <mxCell id="38" value="" style="rounded=1;whiteSpace=wrap;html=1;fontFamily=Comic Sans MS;fontSize=18;" vertex="1" parent="1">
                    <mxGeometry x="450" y="520" width="120" height="60" as="geometry"/>
                </mxCell>
                <mxCell id="39" value="Store" style="text;strokeColor=none;align=center;fillColor=none;html=1;verticalAlign=middle;whiteSpace=wrap;rounded=0;fontFamily=Comic Sans MS;fontSize=18;" vertex="1" parent="1">
                    <mxGeometry x="30" y="535" width="60" height="30" as="geometry"/>
                </mxCell>
                <mxCell id="40" value="Display" style="text;strokeColor=none;align=center;fillColor=none;html=1;verticalAlign=middle;whiteSpace=wrap;rounded=0;fontFamily=Comic Sans MS;fontSize=18;" vertex="1" parent="1">
                    <mxGeometry x="250" y="685" width="60" height="30" as="geometry"/>
                </mxCell>
                <mxCell id="41" value="Process" style="text;strokeColor=none;align=center;fillColor=none;html=1;verticalAlign=middle;whiteSpace=wrap;rounded=0;fontFamily=Comic Sans MS;fontSize=18;" vertex="1" parent="1">
                    <mxGeometry x="480" y="535" width="60" height="30" as="geometry"/>
                </mxCell>
                <mxCell id="46" value="" style="endArrow=none;html=1;fontFamily=Comic Sans MS;fontSize=18;" edge="1" parent="1">
                    <mxGeometry width="50" height="50" relative="1" as="geometry">
                        <mxPoint y="480" as="sourcePoint"/>
                        <mxPoint x="610" y="480" as="targetPoint"/>
                    </mxGeometry>
                </mxCell>
                <mxCell id="47" value="" style="endArrow=classic;html=1;fontFamily=Comic Sans MS;fontSize=18;entryX=0.995;entryY=0.64;entryDx=0;entryDy=0;entryPerimeter=0;" edge="1" parent="1" target="36">
                    <mxGeometry width="50" height="50" relative="1" as="geometry">
                        <mxPoint x="230" y="480" as="sourcePoint"/>
                        <mxPoint x="330" y="530" as="targetPoint"/>
                        <Array as="points">
                            <mxPoint x="230" y="558"/>
                        </Array>
                    </mxGeometry>
                </mxCell>
                <mxCell id="48" value="" style="endArrow=classic;html=1;fontFamily=Comic Sans MS;fontSize=18;entryX=0;entryY=0.75;entryDx=0;entryDy=0;" edge="1" parent="1" target="38">
                    <mxGeometry width="50" height="50" relative="1" as="geometry">
                        <mxPoint x="380" y="480" as="sourcePoint"/>
                        <mxPoint x="129.39999999999998" y="568.4000000000001" as="targetPoint"/>
                        <Array as="points">
                            <mxPoint x="380" y="530"/>
                            <mxPoint x="380" y="565"/>
                        </Array>
                    </mxGeometry>
                </mxCell>
                <mxCell id="49" value="" style="endArrow=none;html=1;fontFamily=Comic Sans MS;fontSize=18;" edge="1" parent="1">
                    <mxGeometry width="50" height="50" relative="1" as="geometry">
                        <mxPoint x="20" y="620" as="sourcePoint"/>
                        <mxPoint x="610" y="620" as="targetPoint"/>
                    </mxGeometry>
                </mxCell>
                <mxCell id="50" value="" style="endArrow=classic;html=1;fontFamily=Comic Sans MS;fontSize=18;entryX=0.5;entryY=0;entryDx=0;entryDy=0;" edge="1" parent="1" target="37">
                    <mxGeometry width="50" height="50" relative="1" as="geometry">
                        <mxPoint x="285" y="620" as="sourcePoint"/>
                        <mxPoint x="290" y="660" as="targetPoint"/>
                    </mxGeometry>
                </mxCell>
            </root>
        </mxGraphModel>
    </diagram>
</mxfile>